<svg xmlns="http://www.w3.org/2000/svg" viewBox="0 0 1633.36 1633.36"><g id="Capa_2" data-name="Capa 2"><g id="Capa_1-2" data-name="Capa 1"><g id="Capa_7" data-name="Capa 7"><circle cx="816.68" cy="816.68" r="816.68" fill="none"/></g><g id="Capa_2-2" data-name="Capa 2-2"><path d="M1336.21,1223.62c1.29-36.13.73-67-3.53-80.94-14-46-186.42-119-186.42-119s-39,13.06-92.58,30.06c-98.32,31.19-245.69,75.65-291,76.94l27,87-102-12,44-75s-32.91-39.77-98-61.71c-27.39-9.24-60.49-15.31-99.23-13.94-130.77,4.65-198.77,37.73-198.77,37.73l-78,76.15a656.9,656.9,0,0,1-101.5-351.73c0-364.51,295.49-660,660-660s660,295.49,660,660A657.07,657.07,0,0,1,1336.21,1223.62Z" fill="#f06c4c"/></g><g id="Capa_4" data-name="Capa 4"><path d="M1576.18,506.54s-181.59,15.7-349.6,21.58c-113.68,4-221.14,3.47-261.9-9.44-51.26-16.24-221.75-5.44-377.26,9.15C436.49,542,299.68,559.68,299.68,559.68l686.4-502.5Z" fill="#f0d278"/><path d="M1302.29,761.37s-40.61-133.69-70.61-150.69,46,15,46,15-22.38-52.66-51.1-97.56c-113.68,4-221.14,3.47-261.9-9.44-51.26-16.24-221.75-5.44-377.26,9.15-38.14,33.24-84.21,84.77-115.74,157.85l61.62-30c-9.85,5.83-46.78,38.82-27.62,200l29.94-50.62s43.06,115.62,72.06,135.62l12-41s5,3,14,7.77c34.28,18.43,125.73,64.13,209,75.23,58.13,7.75,140.18,9.07,211-9.47,57.1-14.94,106.9-42.77,131-90.53l12.9,68s80.1-190,63.1-209S1302.29,761.37,1302.29,761.37Zm-769-105.69a12.89,12.89,0,0,1,2.27-1.11Z" fill="#fff"/><path d="M533.32,655.68a12.89,12.89,0,0,1,2.27-1.11Z" fill="#fff" stroke="#000" stroke-miterlimit="10" stroke-width="0.5"/><path d="M1053.68,1053.74c-98.32,31.19-245.69,75.65-291,76.94l27,87-102-12,44-75s-32.91-39.77-98-61.71V907.45c34.28,18.43,125.73,64.13,209,75.23,58.13,7.75,140.18,9.07,211-9.47Z" fill="#242424"/><path d="M1336.21,1223.62c-120.8,154.36-308.83,253.56-520,253.56-235.21,0-441.69-123-558.57-308.27l78-76.15s68-33.08,198.8-37.73c38.74-1.37,71.84,4.7,99.23,13.94,65.09,21.94,98,61.71,98,61.71l-44,75,102,12-27-87c45.31-1.29,192.68-45.75,291-76.94,53.57-17,92.58-30.06,92.58-30.06s172.43,73,186.43,119C1336.94,1156.68,1337.5,1187.49,1336.21,1223.62Z" fill="#f8f8f8"/><line x1="740.77" y1="1211.93" x2="662.42" y2="1459.17" fill="none" stroke="#000" stroke-miterlimit="10" stroke-width="5"/><rect x="698.2" y="1198.1" width="43.92" height="148.97" transform="matrix(0.14, -0.99, 0.99, 0.14, -638.3, 1813.61)" fill="#242424"/><rect x="669.19" y="1309.09" width="43.92" height="148.97" transform="matrix(0.14, -0.99, 0.99, 0.14, -773.34, 1880.82)" fill="#242424"/><polyline points="1020.68 890.68 963.68 857.68 865.54 874.18 856.38 788.09 836.42 874.18 802.18 874.18" fill="none" stroke="#000" stroke-miterlimit="10" stroke-width="5"/><ellipse cx="869.68" cy="749.18" rx="57.5" ry="40" fill="#242424"/><path d="M942.18,675.18s42.42,34,44.71,74a660.77,660.77,0,0,1,0,73.67s101.29-.67,126.29-58.67,39-187-45-195S942.18,675.18,942.18,675.18Z" fill="#363636"/><path d="M1107.68,642.18c0,20.71-20.37,37.5-45.5,37.5s-45.5-16.79-45.5-37.5c0-10.38,5.12-19.78,13.4-26.58a26.84,26.84,0,0,0-5.4,16c0,17.07,16.79,30.9,37.5,30.9s37.5-13.82,37.5-30.91a26.84,26.84,0,0,0-5.4-16C1102.56,622.4,1107.68,631.8,1107.68,642.18Z" fill="#f2f2f2"/><path d="M1099.68,631.59c0,17.07-16.79,30.9-37.5,30.9s-37.5-13.81-37.5-30.9a26.84,26.84,0,0,1,5.4-16c8.22-6.74,19.58-10.92,32.1-10.92s23.88,4.18,32.1,10.92A26.84,26.84,0,0,1,1099.68,631.59Z" fill="#2e2e2e"/><circle cx="1071.18" cy="627.18" r="9" fill="#f2f2f2"/><path d="M791.18,670.18s-42.42,34-44.71,74a660.77,660.77,0,0,0,0,73.67s-101.29-.67-126.29-58.67-39-187,45-195S791.18,670.18,791.18,670.18Z" fill="#363636"/><path d="M655.68,654.18c0,20.71,20.37,37.5,45.5,37.5s45.5-16.79,45.5-37.5c0-10.38-5.12-19.78-13.4-26.58a26.84,26.84,0,0,1,5.4,16c0,17.07-16.79,30.9-37.5,30.9s-37.5-13.82-37.5-30.91a26.84,26.84,0,0,1,5.4-16C660.8,634.4,655.68,643.8,655.68,654.18Z" fill="#f2f2f2"/><path d="M663.68,643.59c0,17.07,16.79,30.9,37.5,30.9s37.5-13.81,37.5-30.9a26.84,26.84,0,0,0-5.4-16c-8.22-6.73-19.6-10.91-32.1-10.91s-23.88,4.18-32.1,10.92A26.9,26.9,0,0,0,663.68,643.59Z" fill="#2e2e2e"/><circle cx="692.18" cy="639.18" r="9" fill="#f2f2f2"/><line x1="986.18" y1="57.18" x2="493.18" y2="537.18" fill="none" stroke="#ebc247" stroke-miterlimit="10" stroke-width="5"/><path d="M614.68,489.68s23-41,53-63,85-44,85-44-118.49-148.5-193.75-74.25S614.68,489.68,614.68,489.68Z" fill="#535353"/><line x1="762.68" y1="513.68" x2="985.68" y2="56.68" fill="none" stroke="#ebc247" stroke-miterlimit="10" stroke-width="5"/><line x1="995.68" y1="524.68" x2="985.68" y2="56.68" fill="none" stroke="#ebc247" stroke-miterlimit="10" stroke-width="5"/><line x1="1206.68" y1="528.68" x2="985.68" y2="56.68" fill="none" stroke="#ebc247" stroke-miterlimit="10" stroke-width="5"/><line x1="1381.68" y1="520.68" x2="985.68" y2="56.68" fill="none" stroke="#ebc247" stroke-miterlimit="10" stroke-width="5"/><path d="M1092.87,388.68s49.81,19,74.81,43,51.39,58,51.39,58,135.61-113,60.61-168S1092.87,388.68,1092.87,388.68Z" fill="#535353"/></g></g></g></svg>