<svg xmlns="http://www.w3.org/2000/svg" viewBox="0 0 1515.13 1474"><g id="Capa_2" data-name="Capa 2"><g id="Capa_1-2" data-name="Capa 1"><g id="Capa_2-2" data-name="Capa 2"><g id="Capa_6" data-name="Capa 6"><path d="M1169.63,827c5-57-33.2-96.14-33.2-96.14L937.13,874.7,922.6,867c-24-26-24-71-27-99s-45-60-54-57-4,71-4,71,14,27,9.59,54,12.41,45,56.41,92,74-1,139,19c53.28,16.39,176.42,181.25,219.11,240.19a663,663,0,0,1-74.26,74.5c-84-17-200.35-111.19-200.35-111.19s-112-31-161-26-76,13-76,13l-174,99-255-162,3.35-166.44L141.54,994.58A658.37,658.37,0,0,1,98.63,760c0-364.51,295.49-660,660-660s660,295.49,660,660a657.54,657.54,0,0,1-60.91,277.31Z" fill="#3775d2"/></g><g id="Capa_5" data-name="Capa 5"><path d="M1095.63,351s-116.35,8.27-273.28,19.6c-177.5,12.82-406.91,29.55-578.53,42.64C110.82,423.38,12.57,431.33,0,433.59,31,420,578.24,100,578.24,100Z" fill="#f1d279"/><path d="M750.13,1137.5l-174,99-255-162,5.73-284.75,28.27-37.25s26,167,212,188c0,0,47.52,7.72,85.33-11.63a86.76,86.76,0,0,0,13.35-8.39l-4.68,122,17.58,18.76Z" fill="#5d3316"/><path d="M141.54,994.58l48.53-23-16.46,94.18A653.55,653.55,0,0,1,141.54,994.58Z" fill="#cf2f2f"/><path d="M987.13,1150.5s-19,28-72.35,86c-34.23,37.21-52.34,121.22-60.93,176.68a666.84,666.84,0,0,1-239.59-9L965.63,1145C978.77,1148.19,987.13,1150.5,987.13,1150.5Z" fill="#d02f2f"/><path d="M576.13,1236.5,443.9,1340.26a662.84,662.84,0,0,1-270.29-274.45l16.46-94.18,134.41-63.57-3.35,166.44Z" fill="#292929"/><path d="M965.63,1144.93,614.26,1404.16a655.12,655.12,0,0,1-170.36-63.9L576.13,1236.5l174-99h0c.83-.24,27.75-8.07,76-13C861.75,1120.87,930.65,1136.25,965.63,1144.93Z" fill="#2f2f2f"/><path d="M1118.21,1235.86l-18.67,89.39a655.57,655.57,0,0,1-245.69,87.93c8.59-55.46,26.7-139.47,60.93-176.68,53.35-58,72.35-86,72.35-86S1051,1202.15,1118.21,1235.86Z" fill="#84491f"/><path d="M895.92,1473.86a.3.3,0,0,1-.29.14C895.44,1474,895.55,1474,895.92,1473.86Z" fill="#292929"/><path d="M1187.48,1261.69a661.24,661.24,0,0,1-87.94,63.56l18.67-89.39C1141.75,1247.67,1165.7,1257.27,1187.48,1261.69Z" fill="#e5711c"/><path d="M1515.13,457.5,678.71,1061.26l-17.58-18.76,4.68-122a86.76,86.76,0,0,1-13.35,8.39L1462.13,342.5s28,23.43,36.5,51.71S1515.13,457.5,1515.13,457.5Z" fill="#88cd3a"/><path d="M1461.93,349.3s4-25.72-4.1-70.14a422.59,422.59,0,0,0-22.57-78s-10-33.24-3.93-80.86c0,0-52.85,26.3-48.16,74.92s68.89,83.28,68.89,83.28Z" fill="#54932a"/><path d="M1050.63,674s35,70,13,78.5-35-4.5-35-4.5,21,43.36,0,51.18-36-16.18-36-16.18,5,22-12,31-34.58,0-34.58,0,9.58,16-6.42,24-49.23,0-49.23,0-42.77-97-39.77-97,8.46-26.39,18.23-30.2,17,0,17,0,4.42-25.11,12.57-30S924.58,687,924.58,687a36.48,36.48,0,0,1,22.32-30.69C968.58,647,980.58,651,980.58,651s7-20,22-25S1045.63,613,1050.63,674Z" fill="#c6601c"/><path d="M1357.72,1037.31a660.72,660.72,0,0,1-96,149.88C1219,1128.25,1095.89,963.39,1042.61,947c-65-20-95,28-139-19s-60.83-65-56.41-92-9.59-54-9.59-54-5-68,4-71,51,29,54,57,3,73,27,99l14.53,7.7,199.29-143.84s38.2,39.14,33.2,96.14Z" fill="#e5711c"/><path d="M839.13,670.5l-49-53.68-31,26.3,7.2,35.65-39.47,46.05S712.63,731,599.63,747c-75.5,10.7-156.89-22.5-202.5-45.63L405.65,691l-39.16-62-109,125.8c-22.79-82.14-14.36-160.3-14.36-160.3l-52,64c-5.77-75,31.47-188.06,52.69-245.26,171.62-13.09,401-29.82,578.53-42.64C865.77,490.08,839.13,670.5,839.13,670.5Z" fill="#e5711c"/><path d="M718.63,419s73.54-1,64.77,36-19.77,18-54.77,17-52,15.81-58.5-18.6S718.63,419,718.63,419Z" fill="#fdfdf3"/><path d="M502.63,406s73.54-1,64.77,36-19.77,18-54.77,17-52,15.81-58.5-18.6S502.63,406,502.63,406Z" fill="#fdfdf3"/><path d="M803.79,738.67c-1.33,71.88-13.66,136.83-13.66,136.83l-42-66s-31,44-66,94a76.76,76.76,0,0,1-16.32,17c-38.81,29.75-98.68,20-98.68,20-186-21-212-188-212-188l42-51.13c45.61,23.13,127,56.33,202.5,45.63,113-16,127.23-22.18,127.23-22.18l39.47-46.05,16.31,80.73Z" fill="#84491f"/><path d="M405.63,691l-8.5,10.37-42,51.13-63,83q-6.83-10.89-12.49-22.27a324,324,0,0,1-22.17-58.47l109-125.8Z" fill="#fefef4"/><path d="M803.79,738.67,782.64,759.5l-16.31-80.73-7.2-35.65,31-26.3a229.45,229.45,0,0,1,6.75,26.3C802.79,672.89,804.39,706.5,803.79,738.67Z" fill="#fefef4"/><path d="M630,562.68S572.63,549,555.63,581s-10,40-23,52-74,41-74,80,5,72,157,83,140.58-43.5,140.58-43.5,4.42-43.5-40.58-84.5S723.39,574.36,630,562.68Z" fill="#fefef4"/><polygon points="588.63 575 576.63 604 639.63 655 677.63 625 677.63 587.7 588.63 575" fill="#2e2e2e"/><polyline points="482.24 710.8 505.63 747 582.01 759.5 618.15 732.23 639.63 655 640.8 741.4 662.13 778.5 726.86 769.45 740.13 745.5" fill="none" stroke="#2e2e2e" stroke-miterlimit="10" stroke-width="5"/><path d="M579.72,514.35c-4.67,17.52-27,31.46-55.55,34.85A50.07,50.07,0,0,0,527.6,485C552.54,488.27,572.51,499.64,579.72,514.35Z" fill="#fefef4"/><path d="M537.63,515a50.58,50.58,0,0,1-13.5,34.2,111.32,111.32,0,0,1-13.54.8c-31.71,0-58.49-12.8-67.09-30.35,2.67-10,11.12-18.87,23.21-25.24a10.64,10.64,0,0,0-.12,1.59,11,11,0,1,0,18-8.47,109.72,109.72,0,0,1,28-3.53,113.94,113.94,0,0,1,15,1A50.1,50.1,0,0,1,537.63,515Z" fill="#99b53c"/><path d="M488.63,496a11,11,0,0,1-22,0h0a10.64,10.64,0,0,1,.12-1.59,85.18,85.18,0,0,1,17.91-6.91A11,11,0,0,1,488.63,496Z" fill="#fefef4"/><path d="M780.52,551.58A53,53,0,0,1,730.63,586a53.56,53.56,0,0,1-18.87-3.4c19.45-5.19,33.87-24.3,33.87-47.1a51.85,51.85,0,0,0-3.82-19.68C761.35,520.59,776.43,534.38,780.52,551.58Z" fill="#fefef4"/><path d="M745.63,535.5c0,22.8-14.42,41.91-33.87,47.1a52.2,52.2,0,0,1-33.87-43.39,47.09,47.09,0,0,1,6.06-7.85c1.1,5,5,8.64,9.68,8.64,5.52,0,10-5.15,10-11.5a12.26,12.26,0,0,0-3.48-8.71A62.25,62.25,0,0,1,726.63,514a63.17,63.17,0,0,1,15.18,1.82A51.85,51.85,0,0,1,745.63,535.5Z" fill="#9ab63c"/><path d="M703.63,528.5c0,6.35-4.48,11.5-10,11.5-4.66,0-8.58-3.68-9.68-8.64a54.28,54.28,0,0,1,16.18-11.57A12.22,12.22,0,0,1,703.63,528.5Z" fill="#fdfdf3"/><polyline points="745.63 455.83 726.86 489.4 742.63 491 734.43 514.47" fill="none" stroke="#8a2323" stroke-miterlimit="10" stroke-width="5"/><line x1="730.63" y1="586" x2="733.63" y2="631" fill="none" stroke="#8a2323" stroke-miterlimit="10" stroke-width="5"/><rect x="1293.36" y="459.38" width="25.47" height="142.24" transform="translate(-67.42 847.96) rotate(-35.12)" fill="#54932a"/><rect x="1088.36" y="608.38" width="25.47" height="142.24" transform="translate(-190.46 757.16) rotate(-35.12)" fill="#54932a"/><rect x="770.37" y="843.37" width="25.47" height="142.24" transform="translate(-383.53 617) rotate(-35.12)" fill="#54932a"/><path d="M287.13,335.5l188-147s-52-91-151-128-100-10-100-10v59.89L181.83,100S219.13,228.5,287.13,335.5Z" fill="#e5711c"/><path d="M287.13,335.5s-61-150-7-193,116-28,195,46" fill="#ff999f"/><path d="M670.13,197.5l154,109s94-124,68-206.5S846.83,0,846.83,0L783.41,41,759.13,0S687.13,135.5,670.13,197.5Z" fill="#e5711c"/><path d="M824.13,306.5s78-158,13-206.5-167,97.5-167,97.5" fill="#ff999f"/></g></g></g></g></svg>